<?xml version="1.0" encoding="UTF-8" standalone="no"?><!DOCTYPE svg PUBLIC "-//W3C//DTD SVG 1.1//EN" "http://www.w3.org/Graphics/SVG/1.1/DTD/svg11.dtd"><svg width="100%" height="100%" viewBox="0 0 3402 1134" version="1.1" xmlns="http://www.w3.org/2000/svg" xmlns:xlink="http://www.w3.org/1999/xlink" xml:space="preserve" xmlns:serif="http://www.serif.com/" style="fill-rule:evenodd;clip-rule:evenodd;stroke-linecap:round;stroke-linejoin:round;stroke-miterlimit:1.5;"><rect x="546.532" y="234.571" width="2308.511" height="664.717" style="fill:#0e5cbf;fill-opacity:0;stroke:#20f0ff;stroke-width:14.5px;"/><circle cx="828.504" cy="477.336" r="19.198" style="fill:#0e5cbf;fill-opacity:0;stroke:#20f0ff;stroke-width:7.7px;"/><circle cx="828.504" cy="477.336" r="19.198" style="fill:#0e5cbf;fill-opacity:0;stroke:#20f0ff;stroke-width:7.7px;"/><circle cx="828.504" cy="477.336" r="19.198" style="fill:#0e5cbf;fill-opacity:0;stroke:#20f0ff;stroke-width:7.7px;"/><circle cx="828.504" cy="477.336" r="19.198" style="fill:#0e5cbf;fill-opacity:0;stroke:#20f0ff;stroke-width:7.7px;"/><circle cx="2396.948" cy="661.633" r="19.198" style="fill:#0e5cbf;fill-opacity:0;stroke:#20f0ff;stroke-width:7.7px;"/><circle cx="2377.75" cy="749.942" r="19.198" style="fill:#0e5cbf;fill-opacity:0;stroke:#20f0ff;stroke-width:7.7px;"/><circle cx="2558.207" cy="661.633" r="19.198" style="fill:#0e5cbf;fill-opacity:0;stroke:#20f0ff;stroke-width:7.7px;"/><circle cx="2339.355" cy="566.929" r="19.198" style="fill:#0e5cbf;fill-opacity:0;stroke:#20f0ff;stroke-width:7.7px;"/><circle cx="989.764" cy="661.633" r="19.198" style="fill:#0e5cbf;fill-opacity:0;stroke:#20f0ff;stroke-width:7.7px;"/><circle cx="2145.459" cy="554.126" r="19.198" style="fill:#0e5cbf;fill-opacity:0;stroke:#20f0ff;stroke-width:7.7px;"/><circle cx="2068.669" cy="642.435" r="19.198" style="fill:#0e5cbf;fill-opacity:0;stroke:#20f0ff;stroke-width:7.7px;"/><circle cx="1899.73" cy="534.929" r="19.198" style="fill:#0e5cbf;fill-opacity:0;stroke:#20f0ff;stroke-width:7.7px;"/><circle cx="1738.47" cy="566.929" r="19.198" style="fill:#0e5cbf;fill-opacity:0;stroke:#20f0ff;stroke-width:7.7px;"/><circle cx="1122.227" cy="586.127" r="19.198" style="fill:#0e5cbf;fill-opacity:0;stroke:#20f0ff;stroke-width:7.7px;"/><circle cx="751.714" cy="640.515" r="19.198" style="fill:#0e5cbf;fill-opacity:0;stroke:#20f0ff;stroke-width:7.7px;"/><circle cx="889.936" cy="566.929" r="19.198" style="fill:#0e5cbf;fill-opacity:0;stroke:#20f0ff;stroke-width:7.7px;"/><circle cx="1003.202" cy="496.533" r="19.198" style="fill:#0e5cbf;fill-opacity:0;stroke:#20f0ff;stroke-width:7.7px;"/><circle cx="1003.202" cy="496.533" r="19.198" style="fill:#0e5cbf;fill-opacity:0;stroke:#20f0ff;stroke-width:7.7px;"/><circle cx="2235.688" cy="442.78" r="19.198" style="fill:#0e5cbf;fill-opacity:0;stroke:#20f0ff;stroke-width:7.7px;"/><circle cx="1444.747" cy="680.83" r="19.198" style="fill:#0e5cbf;fill-opacity:0;stroke:#20f0ff;stroke-width:7.7px;"/><circle cx="1613.686" cy="496.533" r="19.198" style="fill:#0e5cbf;fill-opacity:0;stroke:#20f0ff;stroke-width:7.7px;"/><circle cx="1613.686" cy="412.064" r="19.198" style="fill:#0e5cbf;fill-opacity:0;stroke:#20f0ff;stroke-width:7.7px;"/><circle cx="1548.414" cy="586.127" r="19.198" style="fill:#0e5cbf;fill-opacity:0;stroke:#20f0ff;stroke-width:7.7px;"/><circle cx="1383.315" cy="496.533" r="19.198" style="fill:#0e5cbf;fill-opacity:0;stroke:#20f0ff;stroke-width:7.7px;"/><circle cx="1325.722" cy="661.633" r="19.198" style="fill:#0e5cbf;fill-opacity:0;stroke:#20f0ff;stroke-width:7.7px;"/><path d="M623.09,703.867c0,0 55.673,92.148 128.624,-63.352c72.951,-155.501 53.753,-191.976 76.79,-168.939c23.037,23.037 61.432,95.353 61.432,95.353c0,0 76.79,236.766 95.988,92.784c19.198,-143.982 23.037,-163.18 23.037,-163.18l113.266,89.593c0,0 163.179,119.66 195.815,75.506c32.636,-44.154 -159.34,-74.871 71.031,-165.099c230.371,-90.229 224.612,-84.469 224.612,-84.469l0,103.667l-67.192,71.031c0,0 -149.741,90.229 -82.55,94.068c67.192,3.839 243.809,-129.895 276.445,-113.901c32.636,15.993 132.464,-43.519 165.099,-26.241c32.636,17.278 126.704,120.945 163.18,101.747c36.475,-19.198 -17.278,17.278 76.79,-88.309c94.068,-105.587 74.87,-115.186 90.229,-111.346c15.358,3.839 76.791,0 101.747,111.346c24.957,111.346 72.951,103.667 72.951,107.507c0,3.839 -51.833,61.432 -32.636,78.71c19.198,17.278 159.34,-47.994 176.618,-78.71" style="fill:#0e5cbf;fill-opacity:0;stroke:#20f0ff;stroke-width:7.7px;"/></svg>