<?xml version="1.0" encoding="UTF-8" standalone="no"?><!DOCTYPE svg PUBLIC "-//W3C//DTD SVG 1.1//EN" "http://www.w3.org/Graphics/SVG/1.1/DTD/svg11.dtd"><svg width="100%" height="100%" viewBox="0 0 14174 4725" version="1.1" xmlns="http://www.w3.org/2000/svg" xmlns:xlink="http://www.w3.org/1999/xlink" xml:space="preserve" xmlns:serif="http://www.serif.com/" style="fill-rule:evenodd;clip-rule:evenodd;stroke-linecap:round;stroke-linejoin:round;"><g><path d="M758.452,2849.044c1352,-891.07 2478.667,534.642 3605.333,118.809c1126.667,-415.833 2253.333,-653.451 3154.666,-237.619c901.333,415.833 2028,475.237 2929.333,-297.023c901.333,-772.26 2028,415.833 2929.333,356.428" style="fill:none;fill-rule:nonzero;stroke:#00e9aa;stroke-width:121.67px;"/><rect x="758.452" y="1578.71" width="12618.666" height="2059.831" style="fill:none;stroke:#a6a6a6;stroke-opacity:0.92;stroke-width:121.67px;stroke-miterlimit:1.5;"/><ellipse cx="798.246" cy="2736.2" rx="34.845" ry="40.386" style="fill:#8c8c8c;"/><ellipse cx="1262.84" cy="2668.889" rx="34.845" ry="40.386" style="fill:#8c8c8c;"/><ellipse cx="1727.433" cy="2534.268" rx="34.845" ry="40.386" style="fill:#8c8c8c;"/><ellipse cx="2192.027" cy="2332.337" rx="34.845" ry="40.386" style="fill:#8c8c8c;"/><ellipse cx="2656.62" cy="2197.716" rx="34.845" ry="40.386" style="fill:#8c8c8c;"/><ellipse cx="3121.214" cy="2265.026" rx="34.845" ry="40.386" style="fill:#8c8c8c;"/><ellipse cx="3585.808" cy="2534.268" rx="34.845" ry="40.386" style="fill:#8c8c8c;"/><ellipse cx="974.206" cy="1185.701" rx="102.17" ry="107.798" style="fill:#8c8c8c;"/><ellipse cx="4050.401" cy="2803.51" rx="34.845" ry="40.386" style="fill:#8c8c8c;"/><ellipse cx="4514.995" cy="3005.442" rx="34.845" ry="40.386" style="fill:#8c8c8c;"/><ellipse cx="4979.588" cy="2938.131" rx="34.845" ry="40.386" style="fill:#8c8c8c;"/><ellipse cx="5444.182" cy="2668.889" rx="34.845" ry="40.386" style="fill:#8c8c8c;"/><ellipse cx="5908.776" cy="2466.958" rx="34.845" ry="40.386" style="fill:#8c8c8c;"/><ellipse cx="6373.369" cy="2332.337" rx="34.845" ry="40.386" style="fill:#8c8c8c;"/><ellipse cx="6837.963" cy="2399.647" rx="34.845" ry="40.386" style="fill:#8c8c8c;"/><ellipse cx="7302.556" cy="2601.579" rx="34.845" ry="40.386" style="fill:#8c8c8c;"/><ellipse cx="7767.15" cy="2803.51" rx="34.845" ry="40.386" style="fill:#8c8c8c;"/><ellipse cx="8231.743" cy="2938.131" rx="34.845" ry="40.386" style="fill:#8c8c8c;"/><ellipse cx="8696.337" cy="2870.821" rx="34.845" ry="40.386" style="fill:#8c8c8c;"/><ellipse cx="9160.931" cy="2668.889" rx="34.845" ry="40.386" style="fill:#8c8c8c;"/><ellipse cx="9625.524" cy="2466.958" rx="34.845" ry="40.386" style="fill:#8c8c8c;"/><ellipse cx="10090.118" cy="2265.026" rx="34.845" ry="40.386" style="fill:#8c8c8c;"/><ellipse cx="10554.711" cy="2197.716" rx="34.845" ry="40.386" style="fill:#8c8c8c;"/><ellipse cx="11019.305" cy="2332.337" rx="34.845" ry="40.386" style="fill:#8c8c8c;"/><ellipse cx="11948.492" cy="2601.579" rx="34.845" ry="40.386" style="fill:#8c8c8c;"/><ellipse cx="11483.899" cy="2466.958" rx="34.845" ry="40.386" style="fill:#8c8c8c;"/><ellipse cx="12413.086" cy="2668.889" rx="34.845" ry="40.386" style="fill:#8c8c8c;"/><ellipse cx="12877.679" cy="2695.813" rx="34.845" ry="40.386" style="fill:#8c8c8c;"/><ellipse cx="13342.273" cy="2668.889" rx="34.845" ry="40.386" style="fill:#8c8c8c;"/></g><g transform="matrix(283.333333,0,0,283.333333,2793.183173,1283.198151)"></g><text x="1218.94px" y="1283.198px" style="font-family:'Arial-BoldMT', 'Arial', sans-serif;font-weight:700;font-size:283.333px;fill:#05ac79;">Constraints</text><g transform="matrix(283.333333,0,0,283.333333,4488.482444,1279.50456)"></g><text x="3528.082px" y="1279.505px" style="font-family:'Arial-BoldMT', 'Arial', sans-serif;font-weight:700;font-size:283.333px;fill:#05ac79;">Quality</text><path d="M3017.132,1248.002c56.35,-71.663 124.931,-99.275 205.795,-26.693c16.79,16.63 32.571,29.085 47.496,37.739c59.428,34.46 105.276,8.666 147.138,-53.73" style="fill:none;stroke:#00e9aa;stroke-width:51.67px;stroke-miterlimit:1.5;"/></svg>