<?xml version="1.0" encoding="UTF-8" standalone="no"?><!DOCTYPE svg PUBLIC "-//W3C//DTD SVG 1.1//EN" "http://www.w3.org/Graphics/SVG/1.1/DTD/svg11.dtd"><svg width="100%" height="100%" viewBox="0 0 3402 1134" version="1.1" xmlns="http://www.w3.org/2000/svg" xmlns:xlink="http://www.w3.org/1999/xlink" xml:space="preserve" xmlns:serif="http://www.serif.com/" style="fill-rule:evenodd;clip-rule:evenodd;stroke-linecap:round;stroke-linejoin:round;"><g><path d="M182.028,683.771c324.48,-213.857 594.88,128.314 865.28,28.514c270.4,-99.8 540.8,-156.828 757.12,-57.028c216.32,99.8 486.72,114.057 703.04,-71.286c216.32,-185.343 486.72,99.8 703.04,85.543" style="fill:none;fill-rule:nonzero;stroke:#00e9aa;stroke-width:8.34px;"/><rect x="182.028" y="378.89" width="3028.48" height="494.36" style="fill:none;stroke:#00e9aa;stroke-width:14px;stroke-miterlimit:1.5;"/><ellipse cx="291.115" cy="674.544" rx="8.112" ry="8.554" style="fill:#00dcff;"/><ellipse cx="399.275" cy="660.287" rx="8.112" ry="8.554" style="fill:#00dcff;"/><ellipse cx="507.435" cy="631.773" rx="8.112" ry="8.554" style="fill:#00dcff;"/><ellipse cx="615.595" cy="589.002" rx="8.112" ry="8.554" style="fill:#00dcff;"/><ellipse cx="723.755" cy="560.488" rx="8.112" ry="8.554" style="fill:#00dcff;"/><ellipse cx="831.915" cy="574.745" rx="8.112" ry="8.554" style="fill:#00dcff;"/><ellipse cx="940.075" cy="631.773" rx="8.112" ry="8.554" style="fill:#00dcff;"/><ellipse cx="239.534" cy="285.321" rx="23.786" ry="22.833" style="fill:#00dcff;"/><ellipse cx="1048.235" cy="688.802" rx="8.112" ry="8.554" style="fill:#00dcff;"/><ellipse cx="1156.395" cy="731.573" rx="8.112" ry="8.554" style="fill:#00dcff;"/><ellipse cx="1264.555" cy="717.316" rx="8.112" ry="8.554" style="fill:#00dcff;"/><ellipse cx="1372.715" cy="660.287" rx="8.112" ry="8.554" style="fill:#00dcff;"/><ellipse cx="1480.875" cy="617.516" rx="8.112" ry="8.554" style="fill:#00dcff;"/><ellipse cx="1589.035" cy="589.002" rx="8.112" ry="8.554" style="fill:#00dcff;"/><ellipse cx="1697.195" cy="603.259" rx="8.112" ry="8.554" style="fill:#00dcff;"/><ellipse cx="1805.355" cy="646.03" rx="8.112" ry="8.554" style="fill:#00dcff;"/><ellipse cx="1913.515" cy="688.802" rx="8.112" ry="8.554" style="fill:#00dcff;"/><ellipse cx="2021.675" cy="717.316" rx="8.112" ry="8.554" style="fill:#00dcff;"/><ellipse cx="2129.834" cy="703.059" rx="8.112" ry="8.554" style="fill:#00dcff;"/><ellipse cx="2237.994" cy="660.287" rx="8.112" ry="8.554" style="fill:#00dcff;"/><ellipse cx="2346.154" cy="617.516" rx="8.112" ry="8.554" style="fill:#00dcff;"/><ellipse cx="2454.314" cy="574.745" rx="8.112" ry="8.554" style="fill:#00dcff;"/><ellipse cx="2562.474" cy="560.488" rx="8.112" ry="8.554" style="fill:#00dcff;"/><ellipse cx="2670.634" cy="589.002" rx="8.112" ry="8.554" style="fill:#00dcff;"/><ellipse cx="2886.954" cy="646.03" rx="8.112" ry="8.554" style="fill:#00dcff;"/><ellipse cx="2778.794" cy="617.516" rx="8.112" ry="8.554" style="fill:#00dcff;"/><ellipse cx="2995.114" cy="660.287" rx="8.112" ry="8.554" style="fill:#00dcff;"/><ellipse cx="3103.274" cy="665.99" rx="8.112" ry="8.554" style="fill:#00dcff;"/><ellipse cx="3211.434" cy="660.287" rx="8.112" ry="8.554" style="fill:#00dcff;"/></g><g transform="matrix(61.690592,0,0,61.690592,604.553002,307.967556)"></g><text x="292.546px" y="307.968px" style="font-family:'ArialMT', 'Arial', sans-serif;font-size:61.691px;fill:#05ac79;">Constraints</text><g transform="matrix(62,0,0,62,1039.702583,307.081094)"></g><text x="846.74px" y="307.081px" style="font-family:'ArialMT', 'Arial', sans-serif;font-size:62px;fill:#05ac79;">Quality</text><path d="M724.112,299.52c13.524,-17.199 29.984,-23.826 49.391,-6.406c4.03,3.991 7.817,6.98 11.399,9.057c14.263,8.27 25.266,2.08 35.313,-12.895" style="fill:none;stroke:#00e9aa;stroke-width:12.4px;stroke-miterlimit:1.5;"/></svg>